<svg id="svg" version="1.1" xmlns="http://www.w3.org/2000/svg" xmlns:xlink="http://www.w3.org/1999/xlink" width="400" height="400" viewBox="0, 0, 400,400"><g id="svgg"><path id="path0" d="M114.200 116.699 C 113.540 116.782,112.792 117.119,112.538 117.449 C 112.220 117.861,111.992 117.910,111.803 117.605 C 111.607 117.288,111.348 117.310,110.899 117.681 C 110.401 118.092,110.235 118.096,110.102 117.700 C 110.009 117.425,109.668 117.200,109.343 117.200 C 109.018 117.200,108.851 117.360,108.972 117.555 C 109.093 117.750,108.939 118.118,108.631 118.374 C 108.229 118.708,107.995 118.715,107.800 118.400 C 107.605 118.085,107.369 118.093,106.964 118.430 C 106.533 118.788,106.400 118.787,106.400 118.428 C 106.400 118.107,105.545 117.982,103.700 118.033 C 100.752 118.116,99.413 118.565,99.866 119.320 C 100.079 119.675,100.003 119.689,99.577 119.375 C 98.870 118.855,98.067 118.866,97.685 119.400 C 97.528 119.620,96.770 119.823,96.000 119.850 C 93.930 119.925,89.600 121.293,89.600 121.872 C 89.600 122.164,89.337 122.274,88.973 122.134 C 88.394 121.912,87.452 122.225,85.400 123.320 C 84.960 123.555,84.103 123.998,83.496 124.305 C 82.888 124.612,82.480 125.006,82.589 125.182 C 82.697 125.357,82.249 125.455,81.593 125.399 C 80.844 125.336,80.400 125.486,80.400 125.804 C 80.400 126.083,79.788 126.426,79.040 126.566 C 78.292 126.706,77.460 127.086,77.191 127.411 C 76.922 127.735,76.454 128.000,76.151 128.000 C 75.848 128.000,75.600 128.172,75.600 128.381 C 75.600 128.591,74.965 129.064,74.189 129.432 C 73.413 129.800,72.465 130.500,72.081 130.988 C 71.698 131.475,71.057 131.826,70.656 131.767 C 70.055 131.679,69.974 131.846,70.193 132.730 C 70.401 133.573,70.352 133.698,69.966 133.317 C 69.482 132.842,69.283 132.950,66.517 135.206 C 66.251 135.423,65.840 135.600,65.603 135.600 C 65.300 135.600,65.296 135.831,65.587 136.376 C 66.070 137.278,65.322 138.044,64.793 137.189 C 64.412 136.573,59.073 141.709,58.625 143.122 C 58.469 143.611,58.183 143.913,57.988 143.793 C 57.590 143.547,56.172 145.979,56.351 146.600 C 56.415 146.820,56.339 146.873,56.184 146.717 C 55.736 146.269,52.771 149.323,52.697 150.309 C 52.660 150.799,52.458 151.200,52.248 151.200 C 52.038 151.200,51.986 151.319,52.131 151.464 C 52.276 151.610,51.991 151.935,51.498 152.188 C 51.004 152.440,50.625 152.949,50.655 153.319 C 50.685 153.689,50.569 153.904,50.397 153.798 C 49.965 153.531,49.462 154.808,49.569 155.900 C 49.635 156.572,49.447 156.800,48.829 156.800 C 48.373 156.800,47.986 156.935,47.969 157.100 C 47.953 157.265,47.844 157.760,47.729 158.200 C 47.614 158.640,47.493 159.382,47.460 159.849 C 47.425 160.338,47.193 160.619,46.912 160.511 C 46.636 160.405,46.113 160.994,45.712 161.862 C 45.320 162.708,44.884 163.454,44.742 163.519 C 44.601 163.585,44.568 163.957,44.670 164.347 C 44.772 164.737,44.569 165.294,44.218 165.585 C 43.638 166.066,43.637 166.178,44.207 166.808 C 44.777 167.438,44.776 167.523,44.196 167.746 C 43.827 167.888,43.661 167.824,43.803 167.595 C 43.937 167.378,43.949 167.200,43.829 167.200 C 43.096 167.200,42.411 170.149,42.994 170.794 C 43.946 171.845,43.759 172.527,42.600 172.236 C 41.729 172.017,41.600 172.116,41.600 173.006 C 41.600 173.568,41.308 174.474,40.951 175.019 C 40.525 175.669,40.385 176.426,40.545 177.225 C 40.716 178.081,40.653 178.356,40.331 178.157 C 40.021 177.966,39.946 178.152,40.099 178.737 C 40.223 179.211,40.162 179.700,39.962 179.823 C 39.455 180.137,39.508 182.000,40.024 182.000 C 40.257 182.000,40.334 182.183,40.196 182.407 C 40.058 182.630,39.800 182.724,39.623 182.614 C 38.846 182.134,38.381 207.583,39.149 208.563 C 39.338 208.803,39.599 209.720,39.731 210.600 C 40.031 212.615,40.161 213.115,40.767 214.600 C 41.037 215.260,41.272 216.298,41.290 216.908 C 41.308 217.517,41.727 218.452,42.223 218.987 C 42.718 219.521,42.962 220.013,42.765 220.079 C 42.568 220.146,42.827 221.233,43.341 222.496 C 43.854 223.759,44.387 224.680,44.525 224.542 C 44.662 224.404,44.699 224.686,44.606 225.168 C 44.448 225.987,44.717 226.940,45.707 229.081 C 45.931 229.565,46.224 229.942,46.357 229.917 C 47.300 229.745,47.948 230.561,47.731 231.647 C 47.575 232.423,47.707 233.056,48.117 233.511 C 48.458 233.890,48.861 234.695,49.012 235.300 C 49.163 235.905,49.414 236.400,49.569 236.400 C 49.725 236.400,50.143 237.010,50.498 237.755 C 50.853 238.500,51.607 239.625,52.173 240.255 C 54.317 242.642,55.600 244.321,55.600 244.739 C 55.600 244.977,55.960 245.365,56.400 245.600 C 56.840 245.835,57.200 246.297,57.200 246.627 C 57.200 246.956,57.515 247.343,57.900 247.486 C 58.285 247.630,58.837 248.077,59.127 248.480 C 59.417 248.884,59.803 249.122,59.985 249.009 C 60.166 248.897,60.429 249.262,60.569 249.819 C 60.709 250.377,60.998 250.725,61.212 250.593 C 61.425 250.461,61.600 250.544,61.600 250.779 C 61.600 251.221,64.860 254.600,65.286 254.600 C 65.419 254.600,65.917 255.095,66.393 255.700 C 66.869 256.305,67.470 256.802,67.729 256.805 C 67.988 256.808,69.010 257.534,70.000 258.418 C 72.496 260.647,72.862 260.939,73.788 261.437 C 74.234 261.678,75.320 262.294,76.200 262.806 C 80.213 265.141,85.062 267.480,85.688 267.382 C 86.066 267.323,86.336 267.475,86.288 267.721 C 86.239 267.967,86.592 268.195,87.072 268.228 C 87.552 268.261,88.597 268.673,89.395 269.144 C 91.008 270.096,93.001 270.317,92.605 269.500 C 92.472 269.225,92.663 269.405,93.030 269.900 C 93.725 270.837,94.970 271.096,95.404 270.393 C 95.542 270.170,95.826 270.092,96.034 270.221 C 96.243 270.350,96.317 270.610,96.200 270.800 C 95.912 271.265,96.311 271.452,98.200 271.734 C 99.080 271.866,99.575 271.875,99.300 271.754 C 99.025 271.632,98.800 271.356,98.800 271.140 C 98.800 270.638,100.384 271.127,101.110 271.853 C 101.787 272.529,102.098 272.538,102.753 271.900 C 103.167 271.497,103.241 271.555,103.133 272.200 C 102.971 273.174,105.478 273.628,106.058 272.730 C 106.340 272.293,106.462 272.297,106.755 272.751 C 106.951 273.054,107.312 273.178,107.558 273.026 C 107.804 272.874,108.116 273.037,108.251 273.389 C 108.576 274.237,124.980 274.277,125.825 273.432 C 126.111 273.146,127.045 272.970,127.964 273.028 C 128.861 273.085,129.698 272.964,129.825 272.759 C 129.952 272.555,130.243 272.503,130.472 272.645 C 130.702 272.786,131.008 272.710,131.153 272.476 C 131.508 271.901,133.529 271.561,133.817 272.028 C 134.223 272.685,134.784 272.425,134.524 271.700 C 134.386 271.315,134.415 271.129,134.589 271.286 C 134.763 271.443,135.242 271.392,135.653 271.172 C 136.159 270.901,136.400 270.906,136.400 271.186 C 136.400 271.414,136.760 271.600,137.200 271.600 C 137.640 271.600,138.000 271.375,138.000 271.100 C 138.000 270.770,138.647 270.600,139.900 270.600 C 141.452 270.600,141.790 270.474,141.746 269.911 C 141.703 269.362,141.842 269.301,142.427 269.615 C 142.969 269.905,143.537 269.797,144.593 269.204 C 145.380 268.762,146.357 268.400,146.763 268.400 C 147.588 268.400,148.538 267.471,148.130 267.063 C 147.861 266.794,148.578 266.648,149.532 266.778 C 149.825 266.817,150.511 266.557,151.057 266.200 C 151.602 265.842,152.263 265.627,152.524 265.723 C 153.208 265.971,154.385 264.827,154.130 264.162 C 154.012 263.853,154.114 263.600,154.357 263.600 C 154.601 263.600,154.800 263.753,154.800 263.939 C 154.800 264.126,155.340 264.294,156.000 264.312 C 156.812 264.335,157.200 264.154,157.200 263.750 C 157.200 263.421,157.344 263.242,157.519 263.350 C 158.026 263.663,158.634 263.106,159.385 261.642 C 159.767 260.895,160.198 260.462,160.340 260.681 C 160.616 261.104,162.000 261.229,162.000 260.831 C 162.000 260.701,162.564 260.346,163.252 260.041 C 163.941 259.736,164.591 259.154,164.698 258.748 C 164.804 258.341,165.043 258.103,165.230 258.218 C 165.416 258.334,166.238 257.796,167.056 257.025 C 168.131 256.011,168.680 255.735,169.036 256.030 C 169.606 256.503,170.204 255.853,169.800 255.200 C 169.664 254.980,169.901 254.800,170.328 254.800 C 170.754 254.800,171.403 254.395,171.770 253.900 C 172.137 253.405,172.317 253.244,172.169 253.541 C 171.984 253.916,172.224 253.871,172.947 253.398 C 173.523 253.021,173.907 252.573,173.801 252.402 C 173.695 252.231,173.985 251.993,174.445 251.872 C 174.976 251.733,175.171 251.476,174.978 251.165 C 174.783 250.848,174.843 250.779,175.150 250.969 C 175.587 251.239,176.509 250.593,179.700 247.782 C 180.666 246.931,181.010 246.128,180.847 245.100 C 180.821 244.935,180.991 244.800,181.224 244.800 C 181.457 244.800,181.533 244.616,181.394 244.390 C 181.255 244.165,181.356 244.030,181.620 244.090 C 182.559 244.305,182.444 243.203,181.430 242.263 C 180.864 241.738,180.400 241.181,180.400 241.026 C 180.400 240.590,179.309 239.600,178.829 239.600 C 178.593 239.600,178.400 239.367,178.400 239.081 C 178.400 238.555,177.569 237.317,176.300 235.953 C 175.915 235.539,175.600 235.093,175.600 234.962 C 175.600 234.831,175.195 234.156,174.701 233.462 C 174.206 232.768,173.801 232.080,173.801 231.933 C 173.799 231.327,173.182 231.117,172.664 231.547 C 172.213 231.921,172.130 231.822,172.217 231.022 C 172.277 230.480,172.074 229.828,171.767 229.573 C 171.460 229.318,171.308 228.948,171.430 228.752 C 171.551 228.555,171.370 228.287,171.028 228.155 C 170.685 228.024,170.501 227.761,170.618 227.571 C 170.735 227.381,170.464 226.997,170.016 226.717 C 169.567 226.437,169.200 226.058,169.200 225.876 C 169.200 225.693,168.660 224.759,168.000 223.800 C 167.340 222.841,166.800 221.891,166.800 221.690 C 166.800 221.489,166.440 220.998,166.000 220.600 C 165.560 220.202,165.200 219.664,165.200 219.404 C 165.200 219.145,164.624 218.419,163.921 217.793 C 163.109 217.069,162.827 216.591,163.149 216.484 C 163.492 216.369,163.388 216.127,162.828 215.735 C 162.373 215.416,162.000 214.805,162.000 214.377 C 162.000 213.950,161.820 213.600,161.600 213.600 C 161.380 213.600,161.200 213.193,161.200 212.696 C 161.200 210.789,159.672 210.567,157.972 212.228 C 157.130 213.050,156.453 213.830,156.468 213.961 C 156.548 214.669,156.363 215.225,156.100 215.071 C 155.513 214.725,153.915 215.602,154.127 216.153 C 154.250 216.475,153.929 216.886,153.346 217.152 C 152.748 217.424,152.469 217.788,152.643 218.070 C 152.843 218.393,152.701 218.448,152.178 218.247 C 151.763 218.088,151.552 218.086,151.709 218.242 C 152.087 218.620,151.248 219.600,150.546 219.600 C 149.809 219.600,145.975 223.235,146.247 223.676 C 146.364 223.865,146.221 223.970,145.930 223.910 C 145.638 223.849,145.449 224.037,145.509 224.327 C 145.571 224.628,145.315 224.815,144.909 224.764 C 143.745 224.618,142.125 225.480,141.892 226.369 C 141.766 226.851,141.323 227.221,140.837 227.250 C 139.715 227.317,139.470 227.371,139.000 227.651 C 138.780 227.782,138.083 228.013,137.452 228.164 C 136.820 228.316,136.041 228.702,135.719 229.023 C 135.398 229.345,134.970 229.505,134.768 229.380 C 134.565 229.255,134.400 229.315,134.400 229.512 C 134.400 229.792,131.931 230.835,130.800 231.032 C 130.690 231.051,130.080 231.282,129.445 231.545 C 128.809 231.807,128.203 231.936,128.097 231.830 C 127.769 231.502,126.801 232.704,126.775 233.471 C 126.754 234.064,126.682 234.032,126.388 233.300 C 126.189 232.805,125.951 232.400,125.859 232.400 C 125.353 232.400,123.595 233.542,123.872 233.692 C 124.052 233.789,123.930 233.788,123.600 233.688 C 122.025 233.214,114.000 233.201,114.000 233.672 C 114.000 234.052,113.893 234.053,113.520 233.680 C 112.942 233.102,109.200 233.033,109.200 233.600 C 109.200 234.441,108.020 233.950,107.516 232.900 C 107.066 231.963,106.743 231.800,105.335 231.799 C 104.385 231.798,103.366 231.522,102.941 231.151 C 101.955 230.290,98.400 228.348,98.400 228.670 C 98.400 228.810,98.044 228.602,97.609 228.208 C 97.173 227.814,96.408 227.464,95.909 227.430 C 95.409 227.395,95.045 227.150,95.100 226.884 C 95.155 226.618,94.885 226.373,94.500 226.339 C 94.115 226.306,93.530 226.256,93.200 226.230 C 92.865 226.202,92.652 225.876,92.718 225.491 C 92.782 225.111,92.657 224.800,92.440 224.800 C 91.917 224.800,88.061 220.873,88.324 220.609 C 88.782 220.152,87.004 218.758,86.216 218.955 C 85.458 219.146,85.450 219.123,86.104 218.633 C 86.744 218.154,86.751 218.057,86.175 217.579 C 85.827 217.290,85.191 216.366,84.763 215.527 C 84.334 214.687,83.762 214.003,83.492 214.006 C 83.175 214.010,83.213 214.150,83.600 214.400 C 83.930 214.613,84.005 214.791,83.767 214.794 C 83.017 214.804,82.831 214.340,83.290 213.604 C 83.638 213.047,83.565 212.682,82.946 211.895 C 82.513 211.345,81.921 210.108,81.629 209.147 C 81.338 208.186,80.869 206.876,80.587 206.235 C 80.305 205.595,80.164 204.838,80.273 204.554 C 80.382 204.271,80.325 203.805,80.147 203.519 C 79.763 202.905,79.583 202.133,79.535 200.900 C 79.516 200.405,79.348 200.000,79.163 200.000 C 78.977 200.000,78.929 199.730,79.055 199.400 C 79.185 199.063,79.066 198.800,78.784 198.800 C 78.197 198.800,78.482 191.495,79.101 190.678 C 79.642 189.965,79.689 187.314,79.178 186.360 C 78.780 185.615,78.822 185.553,79.566 185.789 C 80.228 185.999,80.400 185.883,80.400 185.227 C 80.400 184.772,80.580 184.400,80.800 184.400 C 81.020 184.400,81.200 183.871,81.200 183.224 C 81.200 182.577,81.390 181.930,81.621 181.787 C 81.853 181.644,81.968 181.318,81.876 181.063 C 81.785 180.809,82.144 179.851,82.673 178.935 C 83.285 177.875,83.484 177.175,83.218 177.011 C 82.601 176.630,82.710 175.946,83.366 176.082 C 84.019 176.218,86.128 173.330,85.783 172.772 C 85.656 172.568,85.853 172.400,86.219 172.400 C 86.685 172.400,86.806 172.193,86.622 171.712 C 86.476 171.334,86.488 171.154,86.646 171.313 C 87.018 171.685,88.400 170.443,88.400 169.738 C 88.400 169.442,88.676 169.200,89.013 169.200 C 89.349 169.200,89.743 168.885,89.886 168.500 C 90.030 168.115,90.474 167.565,90.874 167.277 C 91.273 166.990,91.600 166.426,91.600 166.025 C 91.600 165.391,93.416 163.655,94.600 163.156 C 94.820 163.063,95.667 162.572,96.483 162.064 C 97.298 161.557,98.055 161.200,98.165 161.271 C 98.276 161.342,98.638 161.040,98.970 160.600 C 99.303 160.160,99.580 159.957,99.587 160.149 C 99.594 160.341,99.905 160.251,100.277 159.949 C 100.859 159.476,100.911 159.483,100.647 160.000 C 100.465 160.357,100.571 160.320,100.910 159.906 C 101.223 159.525,101.596 159.330,101.740 159.473 C 101.883 159.616,102.000 159.493,102.000 159.200 C 102.000 158.907,102.120 158.787,102.268 158.934 C 102.415 159.081,102.876 158.894,103.292 158.517 C 103.919 157.949,104.107 157.926,104.389 158.383 C 104.676 158.846,104.937 158.834,106.029 158.305 C 106.743 157.959,107.758 157.754,108.285 157.850 C 108.847 157.952,109.717 157.687,110.387 157.209 C 111.232 156.608,111.586 156.526,111.741 156.897 C 111.894 157.265,112.102 157.212,112.519 156.700 C 113.246 155.806,121.831 155.621,121.491 156.506 C 121.363 156.842,121.714 157.029,122.534 157.063 C 123.215 157.091,123.838 157.313,123.919 157.557 C 124.000 157.801,124.671 158.000,125.410 158.000 C 126.148 158.000,126.849 158.155,126.966 158.345 C 127.083 158.534,128.039 158.653,129.089 158.610 C 130.713 158.542,131.098 158.676,131.650 159.498 C 132.481 160.737,132.551 160.749,133.558 159.838 C 134.021 159.419,134.400 159.280,134.400 159.530 C 134.400 159.780,134.863 160.101,135.429 160.243 C 136.162 160.427,136.335 160.625,136.029 160.931 C 135.793 161.167,135.600 161.534,135.600 161.747 C 135.600 161.959,135.721 162.013,135.868 161.865 C 136.016 161.718,136.556 161.872,137.068 162.208 C 137.581 162.544,138.005 162.679,138.012 162.509 C 138.019 162.339,138.208 162.515,138.432 162.900 C 138.698 163.356,139.329 163.600,140.243 163.600 C 141.077 163.600,141.547 163.762,141.400 164.000 C 141.039 164.585,141.576 165.263,142.128 164.918 C 142.817 164.487,143.638 164.415,143.395 164.807 C 143.281 164.993,143.373 165.260,143.600 165.400 C 143.827 165.540,143.909 165.824,143.781 166.030 C 143.654 166.237,143.848 166.520,144.213 166.660 C 144.578 166.800,145.439 167.429,146.127 168.057 C 146.815 168.686,147.544 169.200,147.746 169.200 C 147.948 169.200,148.629 169.740,149.260 170.400 C 149.891 171.060,150.552 171.600,150.728 171.600 C 150.905 171.600,151.449 172.140,151.937 172.800 C 152.425 173.460,153.002 174.000,153.220 174.000 C 153.851 174.000,162.000 182.601,162.000 183.267 C 162.000 183.450,162.180 183.600,162.400 183.600 C 162.620 183.600,162.800 183.870,162.800 184.200 C 162.800 184.530,163.070 184.800,163.400 184.800 C 163.730 184.800,164.000 184.961,164.000 185.158 C 164.000 185.354,164.578 186.119,165.284 186.858 C 165.990 187.596,166.575 188.342,166.584 188.515 C 166.593 188.688,166.784 188.958,167.008 189.115 C 167.232 189.272,168.392 190.694,169.585 192.276 C 170.779 193.857,171.919 195.050,172.120 194.926 C 172.327 194.798,172.368 195.070,172.216 195.550 C 172.061 196.038,172.120 196.400,172.354 196.400 C 172.579 196.400,173.078 197.075,173.464 197.900 C 173.851 198.725,174.444 199.619,174.783 199.887 C 175.122 200.155,175.237 200.380,175.038 200.387 C 174.839 200.394,174.961 200.715,175.310 201.100 C 175.658 201.485,175.942 201.976,175.941 202.190 C 175.941 202.405,176.159 202.653,176.426 202.742 C 176.733 202.844,176.795 202.715,176.594 202.390 C 176.381 202.046,176.435 201.975,176.758 202.174 C 177.126 202.402,177.129 202.603,176.770 203.036 C 176.434 203.441,176.428 203.600,176.751 203.600 C 176.998 203.600,177.200 203.799,177.200 204.042 C 177.200 204.285,177.740 205.284,178.400 206.262 C 179.060 207.240,179.600 208.205,179.600 208.406 C 179.600 208.607,179.960 208.965,180.400 209.200 C 180.840 209.435,181.200 209.826,181.200 210.068 C 181.200 210.310,181.660 210.935,182.223 211.456 C 182.785 211.977,183.134 212.583,182.999 212.802 C 182.864 213.021,182.907 213.200,183.096 213.200 C 183.285 213.200,183.681 213.875,183.976 214.700 C 184.271 215.525,184.624 216.290,184.760 216.400 C 185.212 216.765,187.215 220.000,186.989 220.000 C 186.867 220.000,187.215 220.483,187.762 221.073 C 188.310 221.663,188.670 222.287,188.563 222.460 C 188.456 222.632,188.736 223.003,189.184 223.283 C 189.633 223.563,190.000 224.004,190.000 224.263 C 190.000 224.522,190.145 224.793,190.323 224.867 C 190.501 224.940,191.247 225.900,191.980 227.000 C 193.615 229.451,194.965 230.800,195.783 230.800 C 196.155 230.800,196.401 231.157,196.404 231.700 C 196.406 232.219,196.914 233.000,197.604 233.545 C 198.262 234.065,198.800 234.794,198.800 235.167 C 198.800 235.992,201.335 238.531,201.747 238.119 C 201.910 237.957,201.929 238.120,201.790 238.482 C 201.627 238.906,201.821 239.290,202.339 239.567 C 202.779 239.803,204.166 241.073,205.422 242.389 C 206.678 243.705,207.866 244.683,208.062 244.561 C 208.259 244.440,208.372 244.489,208.313 244.670 C 208.164 245.132,213.649 250.800,214.245 250.800 C 214.514 250.800,214.793 250.935,214.867 251.100 C 214.940 251.265,216.504 252.539,218.343 253.931 C 220.182 255.324,221.539 256.224,221.358 255.931 C 221.178 255.639,221.727 256.075,222.577 256.900 C 223.427 257.725,224.262 258.400,224.433 258.400 C 224.603 258.400,225.042 258.699,225.408 259.065 C 225.970 259.627,226.128 259.642,226.430 259.165 C 226.702 258.735,226.789 258.816,226.794 259.500 C 226.797 260.031,227.046 260.400,227.400 260.400 C 227.730 260.400,228.000 260.574,228.000 260.787 C 228.000 261.001,228.277 261.068,228.616 260.938 C 229.001 260.791,229.189 260.900,229.116 261.227 C 229.052 261.516,229.360 261.828,229.800 261.921 C 230.240 262.013,230.736 262.325,230.902 262.613 C 231.069 262.902,231.789 263.265,232.502 263.421 C 233.216 263.577,234.229 264.041,234.754 264.452 C 235.279 264.863,235.954 265.200,236.254 265.200 C 236.554 265.200,236.800 265.380,236.800 265.600 C 236.800 265.820,237.245 266.000,237.788 266.000 C 238.331 266.000,239.423 266.363,240.214 266.808 C 241.005 267.252,241.801 267.523,241.984 267.410 C 242.167 267.297,242.419 267.474,242.546 267.802 C 242.672 268.131,243.197 268.400,243.712 268.400 C 244.227 268.400,245.035 268.759,245.507 269.199 C 245.978 269.638,246.985 270.043,247.743 270.099 C 248.501 270.154,249.039 270.335,248.937 270.500 C 248.836 270.665,249.393 270.800,250.176 270.800 C 250.959 270.800,251.600 270.961,251.600 271.158 C 251.600 271.481,252.277 271.630,256.199 272.169 C 256.858 272.260,257.623 272.147,257.899 271.918 C 258.252 271.625,258.400 271.641,258.400 271.975 C 258.400 272.235,258.561 272.348,258.758 272.226 C 258.955 272.104,259.211 272.251,259.326 272.552 C 259.585 273.226,264.785 273.295,264.825 272.625 C 264.839 272.391,265.013 272.605,265.212 273.100 C 265.762 274.468,277.417 274.425,277.234 273.055 C 277.187 272.704,277.422 272.697,278.857 273.012 C 279.713 273.200,280.209 273.116,280.450 272.743 C 280.741 272.291,280.858 272.290,281.145 272.734 C 281.524 273.322,283.225 273.233,283.700 272.600 C 283.891 272.346,284.128 272.398,284.350 272.743 C 284.571 273.086,284.793 273.135,284.952 272.877 C 285.091 272.652,284.979 272.388,284.702 272.289 C 284.426 272.190,284.331 271.969,284.490 271.798 C 284.650 271.626,285.034 271.696,285.343 271.953 C 285.953 272.459,288.400 272.429,288.400 271.915 C 288.400 271.742,289.469 271.600,290.776 271.600 C 292.083 271.600,293.264 271.420,293.400 271.200 C 293.536 270.980,294.182 270.800,294.836 270.800 C 295.490 270.800,296.120 270.553,296.236 270.251 C 296.362 269.922,296.918 269.742,297.623 269.802 C 298.426 269.870,298.800 269.719,298.800 269.327 C 298.800 269.011,298.988 268.869,299.218 269.011 C 299.447 269.153,299.903 269.046,300.231 268.774 C 300.559 268.502,301.360 268.238,302.013 268.186 C 302.665 268.135,303.694 267.763,304.299 267.359 C 304.905 266.955,305.643 266.676,305.940 266.739 C 306.237 266.802,306.362 266.661,306.217 266.427 C 306.062 266.176,306.298 266.000,306.789 266.000 C 307.249 266.000,307.733 265.720,307.864 265.377 C 308.001 265.021,308.362 264.853,308.707 264.986 C 309.485 265.284,311.600 264.355,311.600 263.715 C 311.600 263.446,311.825 263.310,312.100 263.415 C 312.705 263.644,314.800 261.916,314.800 261.187 C 314.800 260.901,314.918 260.785,315.063 260.930 C 315.208 261.075,315.568 260.993,315.863 260.748 C 316.266 260.413,316.400 260.434,316.400 260.831 C 316.400 261.700,317.232 260.638,317.304 259.677 C 317.339 259.213,317.448 258.914,317.545 259.012 C 317.643 259.110,318.325 258.817,319.061 258.362 C 319.798 257.907,320.400 257.666,320.400 257.826 C 320.400 257.986,320.850 257.631,321.400 257.038 C 321.950 256.444,322.400 255.865,322.400 255.751 C 322.400 255.150,323.603 254.476,324.333 254.667 C 325.009 254.843,325.140 254.729,325.014 254.074 C 324.862 253.284,325.737 252.590,326.383 252.989 C 326.553 253.095,326.974 252.870,327.318 252.491 C 327.930 251.814,328.000 251.638,328.000 250.773 C 328.000 250.533,328.339 250.454,328.776 250.592 C 329.330 250.768,329.689 250.576,330.034 249.919 C 330.300 249.414,330.766 248.853,331.070 248.674 C 331.638 248.339,333.419 245.717,333.566 245.000 C 333.611 244.780,334.000 244.470,334.430 244.311 C 334.860 244.152,335.378 243.584,335.581 243.050 C 335.784 242.515,336.142 241.960,336.375 241.815 C 336.609 241.671,336.800 241.191,336.800 240.749 C 336.800 240.112,336.976 240.002,337.650 240.216 C 338.186 240.386,338.407 240.335,338.248 240.077 C 338.109 239.852,338.171 239.608,338.386 239.534 C 338.601 239.460,338.835 239.013,338.907 238.539 C 338.979 238.065,339.269 237.398,339.553 237.057 C 339.837 236.715,339.945 236.235,339.794 235.991 C 339.623 235.714,339.799 235.594,340.260 235.673 C 340.687 235.746,340.958 235.589,340.900 235.300 C 340.845 235.025,341.040 234.800,341.332 234.800 C 341.625 234.800,342.057 234.395,342.292 233.900 C 343.425 231.510,344.171 229.770,344.185 229.485 C 344.193 229.312,344.448 229.018,344.751 228.830 C 345.054 228.643,345.186 228.302,345.045 228.072 C 344.903 227.843,344.979 227.537,345.213 227.392 C 345.508 227.209,345.493 226.953,345.162 226.555 C 344.619 225.900,344.944 225.413,345.928 225.405 C 346.616 225.400,346.711 224.741,346.202 223.500 C 346.001 223.011,346.101 222.800,346.534 222.800 C 346.874 222.800,347.281 222.592,347.438 222.338 C 347.632 222.025,347.543 221.985,347.162 222.215 C 346.695 222.497,346.687 222.446,347.115 221.917 C 347.399 221.568,347.545 220.813,347.442 220.241 C 347.315 219.542,347.430 219.200,347.792 219.200 C 348.165 219.200,348.272 218.833,348.141 218.000 C 348.021 217.239,348.124 216.800,348.423 216.800 C 348.685 216.800,348.807 216.470,348.698 216.053 C 348.564 215.540,348.706 215.321,349.151 215.353 C 349.635 215.388,349.800 215.044,349.800 214.000 C 349.800 213.230,350.060 212.397,350.377 212.149 C 350.874 211.761,350.852 211.595,350.224 210.967 C 349.747 210.490,349.654 210.182,349.956 210.081 C 351.093 209.702,351.820 205.726,350.996 204.393 C 350.787 204.055,350.844 203.785,351.146 203.685 C 351.517 203.561,351.523 203.389,351.170 202.963 C 350.804 202.523,350.907 202.228,351.653 201.577 C 352.302 201.009,352.443 200.683,352.100 200.541 C 351.734 200.389,351.600 198.849,351.600 194.800 C 351.600 190.751,351.734 189.211,352.100 189.059 C 352.441 188.918,352.288 188.580,351.621 187.998 C 350.866 187.340,350.734 186.990,351.042 186.472 C 351.393 185.881,351.448 184.787,351.255 182.300 C 351.225 181.915,350.940 181.600,350.623 181.600 C 350.263 181.600,350.103 181.302,350.198 180.808 C 350.282 180.373,350.163 179.901,349.933 179.758 C 349.655 179.586,349.680 179.398,350.009 179.195 C 350.313 179.006,350.372 178.681,350.161 178.345 C 349.974 178.045,349.870 177.494,349.932 177.119 C 349.993 176.745,349.743 175.980,349.376 175.419 C 348.972 174.802,348.884 174.400,349.154 174.400 C 349.790 174.400,349.705 173.762,348.971 173.029 C 348.626 172.683,348.530 172.400,348.759 172.400 C 348.988 172.400,349.072 172.131,348.946 171.802 C 348.819 171.474,348.554 171.305,348.355 171.428 C 348.156 171.551,347.712 171.370,347.368 171.026 C 346.828 170.485,346.824 170.400,347.338 170.400 C 348.467 170.400,348.019 166.873,346.840 166.480 C 346.595 166.398,346.480 166.194,346.585 166.025 C 346.689 165.856,346.497 165.376,346.158 164.959 C 345.818 164.542,345.672 164.453,345.832 164.762 C 346.019 165.122,345.964 165.225,345.679 165.049 C 345.435 164.898,345.333 164.518,345.454 164.204 C 345.703 163.556,344.889 160.800,344.449 160.800 C 344.291 160.800,343.932 160.167,343.652 159.394 C 343.368 158.608,342.961 158.101,342.729 158.244 C 342.466 158.407,342.411 158.197,342.578 157.671 C 342.756 157.109,342.576 156.576,342.020 156.020 C 341.569 155.569,341.200 154.966,341.200 154.680 C 341.200 153.881,340.373 153.236,339.686 153.499 C 339.298 153.648,339.170 153.572,339.341 153.296 C 339.491 153.053,339.430 152.742,339.207 152.604 C 338.983 152.466,338.800 151.815,338.800 151.158 C 338.800 150.254,338.512 149.798,337.619 149.285 C 336.970 148.912,336.345 148.246,336.230 147.804 C 335.928 146.641,333.332 143.871,332.833 144.180 C 332.575 144.339,332.502 144.200,332.646 143.824 C 332.786 143.460,332.619 143.106,332.242 142.961 C 331.889 142.825,331.600 142.556,331.600 142.363 C 331.600 142.170,330.583 140.929,329.341 139.606 C 327.191 137.316,326.000 136.629,326.000 137.680 C 326.000 138.044,325.888 138.048,325.537 137.697 C 325.200 137.360,325.193 137.090,325.512 136.706 C 326.019 136.095,321.489 132.174,320.781 132.612 C 320.561 132.748,320.430 132.629,320.490 132.348 C 320.551 132.067,320.420 131.827,320.200 131.815 C 319.980 131.804,319.260 131.315,318.600 130.728 C 316.874 129.195,313.302 126.800,312.741 126.800 C 312.478 126.800,311.919 126.489,311.499 126.108 C 310.774 125.453,310.714 125.453,310.343 126.117 C 309.839 127.016,309.091 126.574,309.411 125.566 C 309.688 124.694,309.203 124.559,308.456 125.300 C 308.052 125.701,308.012 125.642,308.251 125.000 C 308.526 124.264,308.488 124.247,307.775 124.787 C 307.349 125.110,307.133 125.216,307.297 125.024 C 307.759 124.478,306.805 123.600,305.751 123.600 C 305.228 123.600,304.797 123.375,304.794 123.100 C 304.789 122.718,304.716 122.713,304.483 123.079 C 304.160 123.588,303.110 123.172,303.161 122.555 C 303.178 122.360,302.878 122.192,302.496 122.181 C 302.098 122.171,301.857 121.914,301.933 121.581 C 302.007 121.262,301.938 121.129,301.781 121.286 C 301.623 121.443,301.136 121.380,300.697 121.145 C 300.094 120.822,299.814 120.850,299.555 121.259 C 299.293 121.672,299.211 121.680,299.206 121.290 C 299.198 120.619,297.187 119.853,296.703 120.337 C 296.481 120.559,295.932 120.328,295.310 119.752 C 294.277 118.795,292.000 118.426,292.000 119.216 C 292.000 119.444,291.648 119.303,291.217 118.902 C 290.308 118.055,287.994 117.763,287.574 118.442 C 287.381 118.755,287.130 118.616,286.811 118.021 C 286.358 117.174,286.302 117.165,285.568 117.829 C 284.867 118.464,284.800 118.466,284.800 117.862 C 284.800 117.467,284.478 117.200,284.000 117.200 C 283.560 117.200,283.200 117.420,283.200 117.689 C 283.200 117.958,282.922 117.781,282.583 117.297 C 281.844 116.242,265.723 116.014,265.324 117.053 C 265.219 117.326,264.849 117.440,264.501 117.307 C 264.034 117.127,263.958 117.212,264.211 117.632 C 264.495 118.103,264.431 118.100,263.833 117.615 C 263.197 117.098,263.057 117.107,262.631 117.691 C 262.365 118.054,261.799 118.295,261.374 118.227 C 260.948 118.159,260.375 118.282,260.100 118.500 C 259.759 118.771,259.600 118.751,259.600 118.437 C 259.600 118.132,258.787 118.000,257.200 118.048 C 255.880 118.087,254.800 118.234,254.800 118.375 C 254.800 118.515,254.395 118.660,253.900 118.697 C 251.985 118.840,251.200 119.221,251.200 120.008 C 251.200 120.443,251.026 120.800,250.813 120.800 C 250.599 120.800,250.525 120.540,250.647 120.222 C 250.827 119.753,250.484 119.784,248.831 120.389 C 247.711 120.798,246.895 120.970,247.018 120.771 C 247.276 120.353,246.038 120.740,245.304 121.307 C 245.032 121.518,244.902 121.841,245.015 122.024 C 245.129 122.208,244.857 122.288,244.411 122.202 C 243.965 122.116,243.600 122.252,243.600 122.503 C 243.600 122.833,243.467 122.827,243.120 122.480 C 242.381 121.741,241.787 121.904,241.197 123.005 C 240.806 123.737,240.449 123.942,239.882 123.763 C 239.079 123.508,238.522 123.695,235.800 125.139 C 234.920 125.606,233.390 126.396,232.400 126.894 C 231.410 127.392,230.040 128.200,229.355 128.688 C 228.670 129.177,227.966 129.447,227.791 129.288 C 227.615 129.130,227.586 129.201,227.726 129.447 C 228.052 130.017,226.590 131.365,226.025 131.016 C 225.791 130.871,225.600 130.922,225.600 131.130 C 225.600 131.337,225.240 131.601,224.800 131.716 C 224.304 131.846,224.000 132.262,224.000 132.809 C 224.000 133.491,223.820 133.646,223.215 133.488 C 222.783 133.375,222.222 133.532,221.969 133.837 C 221.716 134.142,221.350 134.293,221.155 134.172 C 220.960 134.051,220.800 134.164,220.800 134.422 C 220.800 134.681,220.125 135.527,219.300 136.303 C 218.475 137.080,218.070 137.568,218.400 137.389 C 218.795 137.174,218.744 137.355,218.250 137.918 C 217.713 138.530,217.313 138.674,216.844 138.424 C 216.418 138.196,215.919 138.270,215.418 138.636 C 214.994 138.946,214.856 139.200,215.111 139.200 C 215.366 139.200,214.703 140.100,213.638 141.200 C 212.572 142.300,211.447 143.200,211.139 143.200 C 210.830 143.200,210.263 143.568,209.878 144.017 C 209.493 144.466,209.003 144.726,208.789 144.593 C 208.569 144.457,208.400 144.894,208.400 145.602 C 208.400 146.667,208.532 146.832,209.300 146.725 C 209.973 146.632,210.170 146.778,210.081 147.305 C 210.016 147.693,210.240 148.117,210.579 148.247 C 210.918 148.377,211.096 148.645,210.974 148.842 C 210.852 149.039,210.905 149.200,211.090 149.200 C 211.557 149.200,212.835 151.432,212.538 151.729 C 212.405 151.862,212.770 152.186,213.348 152.449 C 213.927 152.713,214.400 153.090,214.400 153.288 C 214.400 153.485,214.608 153.519,214.862 153.362 C 215.167 153.173,215.214 153.254,215.001 153.599 C 214.806 153.915,214.910 154.295,215.264 154.561 C 215.586 154.802,215.968 155.317,216.114 155.704 C 216.259 156.091,216.606 156.361,216.884 156.304 C 217.209 156.237,217.351 156.564,217.279 157.209 C 217.205 157.870,217.583 158.699,218.371 159.609 C 220.087 161.591,220.519 162.230,221.811 164.695 C 222.069 165.188,222.749 165.959,223.322 166.410 C 223.895 166.861,224.271 167.470,224.159 167.763 C 224.046 168.057,224.189 168.545,224.477 168.848 C 224.765 169.152,225.267 169.917,225.594 170.548 C 225.920 171.180,226.404 171.780,226.668 171.882 C 226.933 171.983,227.061 172.298,226.952 172.581 C 226.844 172.864,227.154 173.794,227.643 174.648 C 228.131 175.501,228.784 176.695,229.095 177.300 C 229.631 178.347,230.400 178.792,230.400 178.055 C 230.400 177.866,230.805 177.787,231.300 177.881 C 231.952 178.004,232.311 177.795,232.604 177.125 C 232.826 176.616,233.276 176.242,233.604 176.293 C 234.216 176.389,236.287 173.723,236.090 173.093 C 236.030 172.899,236.152 172.847,236.362 172.977 C 236.573 173.107,236.858 173.030,236.996 172.807 C 237.134 172.583,237.046 172.400,236.800 172.400 C 236.554 172.400,236.466 172.217,236.604 171.993 C 236.742 171.770,237.040 171.701,237.266 171.841 C 237.829 172.189,239.600 171.190,239.600 170.524 C 239.600 170.226,240.095 169.765,240.700 169.500 C 241.305 169.234,241.946 168.784,242.125 168.500 C 242.303 168.216,242.606 168.080,242.797 168.198 C 243.355 168.543,243.710 167.615,243.238 167.046 C 242.650 166.337,243.186 165.891,243.906 166.488 C 244.366 166.869,244.582 166.843,244.943 166.360 C 245.438 165.700,246.643 165.100,247.600 165.039 C 247.930 165.017,248.157 164.781,248.105 164.514 C 248.050 164.234,248.261 164.125,248.605 164.257 C 248.932 164.383,249.200 164.286,249.200 164.043 C 249.200 163.799,249.457 163.600,249.771 163.600 C 250.085 163.600,250.677 163.174,251.086 162.654 C 251.495 162.134,252.229 161.581,252.715 161.427 C 253.202 161.272,253.600 160.990,253.600 160.800 C 253.600 160.076,256.792 159.447,256.813 160.167 C 256.820 160.405,257.097 160.240,257.430 159.800 C 257.815 159.291,258.392 159.047,259.017 159.129 C 259.558 159.199,260.000 159.081,260.000 158.866 C 260.000 158.651,260.358 158.568,260.795 158.683 C 261.283 158.810,261.679 158.659,261.821 158.290 C 261.950 157.954,262.362 157.770,262.754 157.872 C 263.140 157.973,263.670 157.797,263.932 157.482 C 264.259 157.088,264.985 156.956,266.253 157.062 C 267.282 157.148,268.342 157.014,268.649 156.759 C 268.952 156.508,269.200 156.466,269.200 156.665 C 269.200 156.865,269.540 157.029,269.955 157.029 C 270.405 157.029,270.630 156.821,270.512 156.514 C 270.361 156.122,271.073 156.000,273.524 156.000 C 275.418 156.000,276.791 156.173,276.874 156.422 C 277.063 156.988,278.486 157.188,279.064 156.729 C 279.351 156.502,279.624 156.515,279.777 156.763 C 279.914 156.984,280.267 157.073,280.561 156.960 C 280.856 156.847,281.199 157.020,281.324 157.345 C 281.491 157.781,283.000 158.010,283.000 157.600 C 283.000 157.566,283.315 157.478,283.700 157.405 C 284.169 157.315,284.400 157.523,284.400 158.035 C 284.400 158.505,284.678 158.800,285.120 158.800 C 285.516 158.800,286.082 159.025,286.379 159.300 C 286.799 159.690,286.856 159.691,286.638 159.305 C 286.453 158.977,286.561 158.887,286.956 159.039 C 287.285 159.165,287.610 159.555,287.677 159.905 C 287.789 160.488,287.855 160.488,288.435 159.908 C 289.130 159.213,289.800 159.455,289.800 160.400 C 289.800 160.730,290.025 160.955,290.300 160.900 C 290.575 160.845,290.800 161.001,290.800 161.247 C 290.800 161.496,291.153 161.601,291.601 161.484 C 292.041 161.369,292.300 161.438,292.177 161.637 C 292.054 161.837,292.252 162.000,292.619 162.000 C 293.452 162.000,295.654 163.813,295.278 164.189 C 295.125 164.342,295.180 164.412,295.400 164.344 C 296.326 164.061,299.681 167.075,302.781 170.977 C 303.452 171.820,304.001 172.350,304.002 172.155 C 304.003 171.960,304.429 172.640,304.950 173.666 C 305.471 174.692,306.297 176.093,306.786 176.780 C 307.275 177.467,307.713 178.287,307.759 178.603 C 307.806 178.919,307.969 179.302,308.122 179.455 C 308.275 179.608,308.404 180.018,308.409 180.367 C 308.414 180.715,308.770 181.450,309.200 182.000 C 309.656 182.583,309.986 183.631,309.991 184.513 C 309.997 185.500,310.214 186.107,310.616 186.262 C 311.035 186.422,311.176 186.858,311.056 187.621 C 310.948 188.306,311.078 188.821,311.390 188.941 C 311.709 189.063,311.823 189.546,311.693 190.228 C 311.548 190.984,311.624 191.232,311.942 191.036 C 312.194 190.880,312.400 190.933,312.400 191.153 C 312.400 191.373,312.264 191.637,312.098 191.740 C 311.539 192.085,311.515 200.100,312.072 200.444 C 312.350 200.616,312.422 200.901,312.234 201.078 C 312.045 201.255,311.810 201.175,311.712 200.900 C 311.377 199.962,310.853 200.397,310.887 201.586 C 310.906 202.239,311.044 202.697,311.194 202.604 C 311.344 202.511,311.467 202.697,311.467 203.018 C 311.467 203.338,311.248 203.600,310.980 203.600 C 310.458 203.600,310.014 204.833,310.005 206.305 C 310.002 206.803,309.820 207.568,309.600 208.005 C 309.380 208.442,309.020 209.158,308.800 209.595 C 308.580 210.032,308.400 210.662,308.400 210.995 C 308.400 211.328,308.241 211.600,308.047 211.600 C 307.598 211.600,307.091 213.152,307.197 214.200 C 307.242 214.640,307.142 214.867,306.976 214.703 C 306.496 214.233,305.600 215.210,305.600 216.202 C 305.600 216.770,305.302 217.185,304.800 217.316 C 303.988 217.528,303.667 218.400,304.400 218.400 C 305.069 218.400,304.847 219.207,304.100 219.491 C 303.715 219.638,303.064 220.182,302.654 220.700 C 302.244 221.218,301.828 221.562,301.730 221.463 C 301.473 221.206,299.393 223.336,299.516 223.730 C 299.573 223.911,299.435 223.945,299.210 223.806 C 298.984 223.667,298.800 223.743,298.800 223.976 C 298.800 224.209,298.536 224.400,298.214 224.400 C 297.892 224.400,297.435 224.760,297.200 225.200 C 296.965 225.640,296.538 226.000,296.252 226.000 C 295.966 226.000,295.251 226.540,294.663 227.200 C 294.075 227.860,293.325 228.400,292.997 228.400 C 292.669 228.400,292.400 228.631,292.400 228.913 C 292.400 229.195,291.905 229.466,291.300 229.516 C 290.695 229.566,290.143 229.775,290.074 229.981 C 290.005 230.187,289.690 230.256,289.374 230.135 C 289.058 230.014,288.800 230.114,288.800 230.357 C 288.800 230.601,288.459 230.800,288.043 230.800 C 287.626 230.800,287.185 231.061,287.063 231.381 C 286.939 231.704,286.487 231.894,286.046 231.809 C 285.609 231.725,285.064 231.882,284.834 232.159 C 284.604 232.436,283.694 232.649,282.813 232.631 C 281.405 232.604,281.233 232.698,281.401 233.400 C 281.506 233.840,281.489 233.975,281.363 233.700 C 281.055 233.029,277.819 233.054,277.257 233.732 C 276.990 234.053,276.320 234.191,275.563 234.080 C 274.773 233.964,274.169 234.100,273.925 234.448 C 273.678 234.801,273.475 234.846,273.360 234.571 C 273.261 234.335,272.669 234.217,272.043 234.308 C 271.418 234.400,270.351 234.188,269.673 233.838 C 268.403 233.181,265.200 232.952,265.200 233.519 C 265.200 234.075,263.075 233.824,262.881 233.244 C 262.758 232.874,262.867 232.794,263.210 233.006 C 263.557 233.221,263.626 233.165,263.421 232.835 C 263.255 232.566,262.858 232.446,262.539 232.568 C 262.220 232.691,262.061 232.625,262.186 232.423 C 262.311 232.221,262.230 231.942,262.007 231.804 C 261.783 231.666,261.600 231.833,261.600 232.176 C 261.600 232.519,261.420 232.800,261.200 232.800 C 260.980 232.800,260.800 232.530,260.800 232.200 C 260.800 231.477,260.333 231.427,259.680 232.080 C 259.307 232.453,259.200 232.366,259.200 231.685 C 259.200 230.831,257.122 229.531,255.600 229.434 C 254.914 229.390,251.868 227.595,251.667 227.117 C 251.593 226.943,251.278 226.800,250.967 226.800 C 250.655 226.800,250.400 226.620,250.400 226.400 C 250.400 226.180,249.950 226.000,249.400 226.000 C 248.850 226.000,248.400 225.820,248.400 225.600 C 248.400 225.380,248.118 225.200,247.774 225.200 C 247.430 225.200,246.694 224.660,246.139 224.000 C 245.583 223.340,244.920 222.800,244.664 222.800 C 244.209 222.799,243.611 222.338,240.000 219.201 C 239.010 218.340,237.765 217.266,237.232 216.813 C 236.614 216.286,235.979 216.080,235.472 216.241 C 234.861 216.435,234.735 216.347,234.922 215.858 C 235.056 215.509,234.912 214.969,234.602 214.659 C 234.292 214.349,234.165 213.955,234.319 213.783 C 234.474 213.612,234.404 213.584,234.164 213.720 C 233.924 213.857,233.321 213.419,232.825 212.748 C 232.232 211.946,231.676 211.591,231.204 211.715 C 230.615 211.869,230.516 211.705,230.657 210.813 C 230.797 209.925,230.572 209.547,229.445 208.774 C 228.683 208.253,228.147 207.685,228.254 207.513 C 228.360 207.341,228.302 207.195,228.124 207.189 C 227.946 207.183,227.364 206.472,226.831 205.608 C 226.299 204.744,225.686 204.147,225.470 204.281 C 225.253 204.414,225.191 204.338,225.331 204.112 C 225.590 203.692,222.398 199.216,220.863 197.847 C 220.399 197.432,220.094 196.971,220.186 196.822 C 220.279 196.673,219.644 195.613,218.777 194.467 C 217.910 193.321,217.200 192.197,217.200 191.968 C 217.200 191.740,217.050 191.645,216.867 191.759 C 216.683 191.872,216.533 191.723,216.533 191.427 C 216.533 190.600,215.210 188.000,214.789 188.000 C 214.583 188.000,214.302 187.550,214.164 187.000 C 214.026 186.450,213.798 185.998,213.657 185.995 C 213.515 185.993,213.045 185.228,212.610 184.295 C 212.176 183.363,211.400 182.194,210.887 181.697 C 210.373 181.201,209.879 180.408,209.787 179.935 C 209.696 179.462,209.255 178.685,208.807 178.208 C 208.359 177.731,208.114 177.219,208.263 177.070 C 208.412 176.922,208.323 176.800,208.067 176.800 C 207.810 176.800,207.600 176.449,207.600 176.020 C 207.600 175.591,207.373 175.096,207.096 174.920 C 206.819 174.744,206.234 173.880,205.796 173.000 C 205.358 172.120,204.910 171.310,204.799 171.200 C 204.689 171.090,204.329 170.476,203.999 169.837 C 203.670 169.197,202.929 168.169,202.354 167.552 C 201.726 166.880,201.486 166.357,201.754 166.247 C 202.046 166.126,202.028 166.052,201.700 166.032 C 201.425 166.014,201.200 165.816,201.200 165.590 C 201.200 164.993,198.699 161.454,196.407 158.808 C 195.314 157.546,194.531 156.402,194.667 156.266 C 194.803 156.130,194.620 155.906,194.260 155.768 C 193.899 155.629,193.686 155.384,193.786 155.223 C 193.975 154.916,191.287 152.118,190.609 151.916 C 190.394 151.852,190.186 151.586,190.148 151.325 C 190.110 151.064,189.341 150.083,188.439 149.145 C 187.538 148.206,186.800 147.295,186.800 147.119 C 186.800 146.944,186.564 146.800,186.275 146.800 C 185.987 146.800,185.345 146.252,184.849 145.581 C 184.196 144.697,183.737 144.430,183.177 144.607 C 182.594 144.792,182.463 144.701,182.642 144.235 C 182.787 143.856,182.400 143.138,181.641 142.379 C 180.791 141.530,180.472 141.370,180.625 141.870 C 180.747 142.272,180.472 141.925,180.014 141.100 C 179.556 140.275,179.012 139.600,178.806 139.600 C 178.600 139.600,178.078 139.221,177.646 138.757 C 177.181 138.258,176.661 138.039,176.369 138.219 C 176.080 138.398,175.979 138.358,176.124 138.123 C 176.464 137.572,174.303 135.573,173.284 135.496 C 172.828 135.462,172.488 135.261,172.528 135.050 C 172.567 134.838,172.188 134.451,171.685 134.188 C 171.181 133.926,170.534 133.388,170.245 132.994 C 169.957 132.600,169.514 132.406,169.261 132.562 C 168.981 132.735,168.800 132.576,168.800 132.157 C 168.800 131.777,168.679 131.587,168.532 131.735 C 168.384 131.882,167.826 131.716,167.291 131.365 C 166.756 131.015,166.000 130.811,165.610 130.913 C 165.093 131.048,164.950 130.911,165.082 130.406 C 165.323 129.485,162.175 127.757,161.411 128.391 C 161.026 128.711,160.915 128.601,160.952 127.937 C 160.987 127.294,160.697 126.980,159.857 126.754 C 159.228 126.585,158.373 126.138,157.957 125.761 C 157.513 125.360,157.200 125.267,157.200 125.538 C 157.200 126.262,156.514 126.079,156.307 125.300 C 156.079 124.442,152.659 123.101,152.107 123.653 C 151.866 123.894,151.539 123.808,151.214 123.417 C 150.932 123.078,150.461 122.800,150.167 122.800 C 149.872 122.800,149.264 122.406,148.816 121.925 C 148.321 121.394,148.000 121.256,148.000 121.574 C 148.000 121.996,147.872 121.991,147.339 121.549 C 146.975 121.247,146.390 120.984,146.039 120.965 C 145.309 120.926,144.138 120.524,143.061 119.943 C 142.321 119.544,141.800 119.746,141.800 120.433 C 141.800 120.635,141.620 120.782,141.400 120.760 C 141.180 120.738,141.051 120.539,141.114 120.318 C 141.433 119.194,138.395 118.237,137.762 119.261 C 137.647 119.448,137.373 119.600,137.153 119.600 C 136.933 119.600,136.856 119.432,136.983 119.228 C 137.314 118.693,136.467 118.273,134.402 117.948 C 133.411 117.792,132.240 117.585,131.800 117.489 C 131.360 117.392,130.865 117.513,130.700 117.757 C 130.492 118.064,130.281 118.016,130.012 117.600 C 129.682 117.090,129.495 117.080,128.759 117.537 C 128.034 117.986,127.837 117.986,127.553 117.537 C 127.365 117.242,127.207 117.180,127.200 117.400 C 127.193 117.620,127.020 117.535,126.815 117.210 C 126.451 116.634,117.572 116.274,114.200 116.699 " stroke="none" fill="#fcfcfc" fill-rule="evenodd"></path><path id="path1" d="M229.681 178.781 C 230.259 179.706,231.013 179.843,231.441 179.100 C 231.599 178.825,231.579 178.736,231.396 178.901 C 231.213 179.067,230.638 178.923,230.116 178.582 C 229.203 177.983,229.187 177.990,229.681 178.781 M311.267 191.481 C 311.500 191.762,311.850 191.893,312.045 191.772 C 312.657 191.394,312.433 190.971,311.622 190.971 C 311.037 190.971,310.949 191.098,311.267 191.481 M123.278 232.987 L 122.357 233.495 123.261 233.732 C 123.758 233.862,124.248 233.885,124.349 233.784 C 124.450 233.683,124.301 233.600,124.018 233.600 C 123.605 233.600,123.601 233.481,124.000 233.000 C 124.578 232.304,124.519 232.303,123.278 232.987 M217.687 253.991 C 218.191 254.797,218.800 255.074,218.800 254.496 C 218.800 254.329,218.436 253.965,217.991 253.687 C 217.241 253.219,217.219 253.241,217.687 253.991 M223.870 257.762 C 223.751 258.072,224.047 258.657,224.527 259.062 C 225.387 259.789,225.391 259.789,224.752 259.000 C 224.396 258.560,224.186 257.975,224.286 257.700 C 224.536 257.007,224.136 257.067,223.870 257.762 " stroke="none" fill="#f4f4fc" fill-rule="evenodd"></path><path id="path2" d="" stroke="none" fill="#fc100fc" fill-rule="evenodd"></path><path id="path3" d="" stroke="none" fill="#fc100fc" fill-rule="evenodd"></path><path id="path4" d="" stroke="none" fill="#fc100fc" fill-rule="evenodd"></path></g></svg>